<?xml version="1.0" standalone="no"?>
<!DOCTYPE svg PUBLIC "-//W3C//DTD SVG 20010904//EN"
 "http://www.w3.org/TR/2001/REC-SVG-20010904/DTD/svg10.dtd">
<svg version="1.0" xmlns="http://www.w3.org/2000/svg"
 width="150.000000pt" height="150.000000pt" viewBox="0 0 256.000000 256.000000"
 preserveAspectRatio="xMidYMid meet">

<g transform="translate(0.000000,256.000000) scale(0.100000,-0.100000)"
fill="#000000" stroke="none">
<path d="M1480 2532 c-18 -19 -36 -57 -54 -115 -14 -47 -30 -88 -35 -91 -4 -3
-45 4 -90 14 -109 26 -136 25 -166 -5 -30 -29 -33 -80 -9 -161 8 -30 14 -66
12 -81 -3 -25 -10 -29 -80 -49 -42 -11 -89 -29 -104 -38 -25 -17 -28 -17 -98
15 -68 32 -76 33 -196 34 -124 0 -126 0 -203 -37 -110 -53 -186 -128 -240
-237 l-42 -85 0 -132 c0 -130 -1 -133 -23 -139 -33 -8 -100 -72 -125 -119 -31
-61 -30 -156 4 -221 28 -56 91 -109 147 -125 21 -6 156 -10 320 -10 l282 0 0
-264 c0 -227 -2 -265 -16 -277 -8 -7 -24 -29 -34 -48 -78 -155 22 -340 193
-358 133 -14 251 79 273 214 8 54 -18 144 -56 187 l-30 34 0 255 0 256 308 3
c290 3 309 4 342 24 l36 21 53 -44 c36 -29 62 -43 83 -43 43 0 83 45 103 116
31 110 30 109 58 112 15 2 51 -4 81 -12 81 -24 132 -21 161 9 31 30 32 62 5
169 -10 44 -17 83 -14 87 3 5 44 21 91 35 123 38 165 84 132 147 -7 12 -38 50
-70 84 -33 34 -59 68 -59 77 0 8 26 44 59 78 88 95 98 124 60 172 -14 18 -45
33 -107 52 -48 15 -92 32 -99 38 -10 9 -8 27 7 86 27 104 26 145 -5 175 -30
31 -62 32 -170 5 -63 -15 -82 -17 -91 -7 -6 6 -23 51 -38 99 -19 62 -34 93
-52 107 -48 38 -77 28 -172 -60 -34 -33 -70 -59 -78 -59 -9 0 -43 26 -77 59
-96 91 -129 101 -177 53z m145 -134 c92 -87 134 -85 230 12 33 33 65 60 72 60
7 0 24 -38 39 -87 30 -98 64 -143 110 -143 16 0 66 10 112 21 45 12 85 19 89
16 3 -4 -4 -44 -16 -89 -11 -46 -21 -96 -21 -112 0 -44 46 -81 131 -105 125
-36 121 -28 46 -107 -36 -39 -71 -83 -77 -99 -15 -41 2 -83 56 -136 25 -24 54
-56 65 -71 l20 -27 -73 -21 c-106 -31 -126 -40 -148 -68 -25 -31 -25 -58 1
-161 11 -45 19 -85 16 -88 -3 -2 -49 5 -104 17 -143 32 -173 13 -208 -129 -24
-97 -26 -99 -69 -60 l-36 34 20 53 c11 29 20 67 20 85 0 29 4 35 38 46 107 39
223 149 277 263 101 213 61 442 -105 608 -74 74 -158 123 -251 145 -184 43
-363 -9 -501 -146 -71 -70 -132 -177 -144 -251 -7 -43 -15 -50 -67 -65 -38
-11 -38 -11 -64 30 -14 23 -39 57 -56 75 -19 19 -27 35 -21 41 5 4 40 16 78
26 140 38 160 70 126 211 -13 52 -21 97 -18 99 3 3 43 -4 89 -15 105 -25 130
-25 161 0 28 22 37 42 68 148 l21 74 22 -18 c12 -10 45 -40 72 -66z m197 -219
c235 -49 399 -283 360 -514 -23 -142 -117 -271 -242 -334 l-63 -31 -17 27
c-26 43 -85 91 -128 104 -36 10 -39 14 -55 78 -40 153 -173 276 -327 300 -28
4 -53 11 -56 14 -10 9 24 100 56 150 101 160 292 243 472 206z m-988 -237
c124 -58 220 -188 233 -316 l6 -56 42 0 41 0 -7 63 c-7 51 -5 64 8 74 43 33
192 29 264 -6 86 -41 161 -137 183 -232 5 -24 1 -28 -40 -44 -83 -32 -137 -94
-153 -179 l-8 -46 43 0 c40 0 44 2 44 24 0 28 35 82 72 109 40 30 116 34 165
9 125 -64 113 -246 -20 -297 -35 -13 -84 -15 -317 -13 l-275 3 -5 197 c-6 224
-9 234 -90 276 -56 28 -84 28 -140 0 -87 -45 -99 -85 -100 -316 l0 -163 -293
3 -294 3 -37 29 c-49 37 -80 105 -71 155 17 90 89 147 178 138 26 -2 61 -13
75 -24 37 -27 72 -81 72 -109 0 -22 4 -24 44 -24 l43 0 -7 38 c-19 102 -95
181 -195 201 -24 6 -31 13 -38 46 -5 22 -7 75 -4 117 3 61 10 90 36 143 40 80
112 154 186 190 78 39 108 45 207 41 71 -3 98 -9 152 -34z m173 -524 l23 -21
0 -502 0 -502 26 -24 c38 -35 54 -72 54 -124 0 -79 -43 -134 -121 -155 -70
-19 -152 17 -185 83 -24 46 -21 122 7 160 12 18 31 38 41 45 15 11 18 27 18
88 l0 74 40 0 40 0 0 40 0 40 -40 0 -40 0 0 40 0 40 40 0 40 0 0 40 0 40 -40
0 -40 0 0 45 0 45 40 0 40 0 0 40 0 40 -40 0 -40 0 0 40 0 40 40 0 40 0 0 43
0 43 -40 -4 -40 -4 0 46 0 46 40 0 40 0 0 40 0 40 -40 0 -40 0 0 57 c0 44 5
62 22 80 28 30 83 31 115 1z"/>
<path d="M910 250 l0 -40 40 0 40 0 0 40 0 40 -40 0 -40 0 0 -40z"/>
</g>
</svg>
