<?xml version="1.0" standalone="no"?>
<!DOCTYPE svg PUBLIC "-//W3C//DTD SVG 20010904//EN"
 "http://www.w3.org/TR/2001/REC-SVG-20010904/DTD/svg10.dtd">
<svg version="1.0" xmlns="http://www.w3.org/2000/svg"
 width="150.000000pt" height="150.000000pt" viewBox="0 0 256.000000 256.000000"
 preserveAspectRatio="xMidYMid meet">

<g transform="translate(0.000000,256.000000) scale(0.100000,-0.100000)"
fill="#000000" stroke="none">
<path d="M1739 2358 c-120 -190 -122 -194 -116 -227 7 -32 -33 -97 -96 -159
l-45 -44 36 -33 36 -33 -43 -56 c-24 -31 -57 -68 -73 -81 l-29 -25 40 -27 c22
-16 40 -33 41 -39 0 -19 -59 -91 -100 -119 -22 -15 -40 -30 -40 -34 0 -3 18
-19 40 -35 22 -17 40 -35 40 -40 -1 -16 -61 -91 -98 -121 l-33 -28 22 -23 c29
-31 98 -64 132 -64 15 0 43 7 62 14 31 13 39 13 72 -1 36 -14 86 -14 126 2 16
7 17 -8 17 -223 l0 -230 -32 -6 c-47 -9 -852 -136 -860 -136 -5 0 -8 85 -8
190 l0 190 26 -10 c37 -14 95 -12 127 5 25 13 32 13 57 0 47 -25 110 -19 162
14 50 32 68 53 50 59 -14 4 -122 136 -122 148 0 5 18 22 40 38 l40 29 -58 53
c-31 28 -65 65 -74 82 l-18 30 41 26 40 27 -39 43 c-22 24 -53 63 -68 86 l-28
43 34 28 34 29 -31 32 c-49 53 -114 147 -223 323 l-103 165 -63 -102 -63 -102
30 -18 c16 -10 31 -18 33 -18 2 0 16 20 30 45 15 25 30 45 34 45 4 0 43 -59
87 -132 44 -73 97 -154 117 -180 21 -26 38 -50 38 -53 0 -3 -16 -5 -37 -5 -23
0 -48 9 -69 25 l-34 26 -29 -22 c-39 -29 -103 -29 -141 0 -36 26 -36 26 -72
-4 -19 -16 -42 -25 -64 -25 -19 0 -34 2 -34 4 0 2 29 48 66 102 l65 98 -23 18
c-13 10 -28 18 -34 18 -6 0 -28 -28 -50 -62 -21 -35 -62 -88 -91 -119 l-54
-56 37 -32 36 -32 -28 -37 c-15 -20 -47 -58 -71 -83 l-44 -46 41 -28 c22 -15
40 -31 40 -35 0 -16 -61 -90 -97 -116 -21 -16 -40 -30 -43 -32 -3 -2 15 -21
40 -42 l44 -38 -29 -42 c-16 -23 -47 -56 -68 -74 -22 -18 -37 -38 -33 -44 3
-5 27 -24 53 -41 53 -35 114 -41 162 -16 26 13 33 13 61 -2 24 -11 47 -14 89
-10 l56 6 -2 -201 c-1 -110 -4 -202 -5 -204 -2 -1 -76 -14 -165 -28 -115 -19
-199 -26 -297 -26 l-136 0 0 -42 0 -41 163 6 c202 8 689 -8 902 -28 276 -26
518 -72 759 -142 65 -18 120 -32 122 -30 2 2 7 17 10 34 6 29 4 31 -42 46
-277 90 -731 172 -1022 184 -78 3 -141 7 -140 9 5 4 919 153 1073 174 233 31
456 50 602 50 l133 0 0 40 0 40 -82 0 c-101 -1 -383 -16 -468 -26 l-61 -7 3
127 3 126 -37 0 -38 0 0 -135 0 -135 -40 0 -40 0 0 209 0 209 40 4 40 4 0 -38
c0 -37 1 -38 38 -38 l37 0 -4 47 c-3 42 -1 45 15 39 43 -17 86 -18 127 -2 40
15 47 15 80 1 50 -21 75 -19 134 10 83 42 84 47 21 113 -70 73 -86 101 -66
116 8 6 27 21 42 33 l28 23 -23 20 c-13 10 -27 19 -31 20 -11 0 -88 100 -88
113 1 7 19 24 41 40 l40 27 -29 25 c-16 13 -49 50 -73 81 l-43 56 35 33 36 32
-45 44 c-71 69 -136 176 -134 219 2 27 -9 54 -46 115 -87 143 -127 205 -132
205 -3 0 -48 -69 -101 -152z m155 -68 c28 -45 46 -86 43 -95 -5 -11 -22 -15
-71 -15 -57 0 -67 -3 -96 -30 -36 -34 -65 -36 -64 -4 0 20 123 224 135 224 3
0 27 -36 53 -80z m124 -269 c33 -49 58 -92 54 -95 -15 -16 -64 -3 -95 24 -34
29 -34 29 -52 10 -42 -47 -128 -46 -170 1 -18 19 -19 19 -39 0 -43 -39 -97
-53 -112 -30 -3 6 5 23 18 37 14 15 32 38 41 51 13 20 25 25 62 26 37 0 51 6
77 33 30 29 38 32 94 32 l62 0 60 -89z m-252 -156 c37 -19 111 -19 147 0 25
13 32 13 57 0 16 -8 40 -15 53 -15 19 0 33 -12 56 -49 17 -26 40 -56 51 -66
11 -10 17 -22 14 -26 -11 -18 -98 -9 -139 14 l-39 22 -46 -23 c-52 -27 -106
-25 -168 7 -37 19 -38 19 -66 -2 -29 -21 -112 -34 -142 -23 -15 6 -14 10 8 34
14 15 38 46 53 70 21 31 34 42 54 42 14 1 37 7 51 15 14 8 26 14 26 15 1 0 15
-7 30 -15z m74 -239 c41 0 76 6 95 16 26 14 34 14 55 2 14 -7 46 -16 72 -20
41 -6 51 -12 70 -43 11 -20 34 -50 51 -68 29 -31 29 -31 7 -38 -29 -9 -69 2
-107 31 -23 17 -32 20 -36 10 -3 -7 -22 -21 -42 -31 -45 -21 -92 -16 -134 15
l-30 20 -33 -20 c-45 -27 -106 -26 -150 3 l-34 24 -30 -23 c-33 -27 -74 -38
-103 -29 -18 6 -18 7 6 33 14 15 36 46 49 68 22 37 30 42 72 48 26 4 58 13 72
20 21 12 29 12 55 -2 19 -10 54 -16 95 -16z m-1153 2 c34 -9 50 -8 86 6 43 16
48 16 103 -3 39 -13 64 -29 78 -48 10 -15 32 -44 47 -64 l28 -37 -22 -6 c-39
-10 -62 -6 -115 20 l-52 26 -32 -20 c-53 -33 -99 -37 -151 -14 -24 11 -47 25
-51 31 -5 7 -21 1 -48 -17 -31 -20 -54 -27 -89 -27 -26 0 -51 3 -54 7 -4 4 6
23 23 43 18 19 39 49 47 65 10 19 23 30 38 30 12 1 36 7 52 15 17 8 39 11 50
9 11 -3 39 -11 62 -16z m-54 -213 c47 -19 128 -19 174 0 33 14 41 14 75 0 21
-8 53 -15 72 -15 24 0 35 -6 43 -22 6 -13 27 -44 47 -71 20 -26 36 -49 36 -52
0 -16 -80 -2 -108 19 l-32 23 -48 -24 c-54 -27 -99 -25 -144 8 -28 20 -28 20
-56 -1 -46 -34 -94 -36 -147 -7 l-46 26 -36 -25 c-23 -15 -50 -24 -75 -24
l-39 0 39 53 c22 28 45 62 51 75 9 17 21 22 49 22 20 1 51 7 67 15 39 17 37
17 78 0z m1020 0 c47 -19 120 -19 157 0 27 14 33 14 60 0 37 -19 110 -19 155
-1 30 13 38 13 62 1 16 -8 40 -15 55 -15 20 0 32 -8 42 -29 8 -15 31 -49 51
-75 l35 -46 -34 0 c-22 0 -45 9 -65 26 l-31 26 -32 -27 c-27 -23 -39 -26 -76
-22 -26 3 -53 14 -67 27 l-24 22 -27 -21 c-34 -27 -98 -28 -140 -2 -30 18 -30
18 -59 -6 -24 -21 -36 -24 -72 -20 -27 3 -54 14 -68 27 l-24 22 -34 -26 c-29
-22 -97 -37 -97 -21 0 3 16 26 36 52 20 27 41 58 47 71 7 14 19 22 36 22 14 1
37 7 51 15 14 8 26 14 26 15 1 0 18 -7 37 -15z m-1043 -240 c35 0 66 6 81 17
23 14 27 14 54 0 39 -21 122 -20 162 1 17 9 34 13 37 8 4 -5 29 -15 57 -22 39
-10 54 -20 65 -42 9 -15 31 -46 50 -67 l36 -39 -25 -6 c-26 -7 -74 13 -96 39
-11 13 -17 11 -49 -11 -30 -20 -46 -24 -80 -20 -24 3 -53 14 -65 25 -22 20
-22 20 -46 1 -31 -26 -110 -26 -142 0 -22 18 -23 18 -57 -5 -45 -31 -90 -30
-135 0 -31 21 -37 23 -48 10 -22 -26 -70 -46 -96 -39 l-25 6 34 38 c18 21 40
51 49 68 12 22 28 33 60 41 24 7 50 16 58 21 10 6 23 4 39 -7 16 -11 46 -17
82 -17z m143 -412 l-2 -188 -36 -6 -35 -6 0 194 0 193 38 0 37 0 -2 -187z"/>
<path d="M2259 645 c0 -3 -1 -20 -2 -37 -1 -31 2 -33 36 -36 l37 -3 0 40 c0
40 -1 41 -35 41 -19 0 -35 -2 -36 -5z"/>
<path d="M2409 645 c0 -3 -1 -20 -2 -37 -1 -31 2 -33 36 -36 l37 -3 0 40 c0
40 -1 41 -35 41 -19 0 -35 -2 -36 -5z"/>
<path d="M80 310 l0 -41 37 3 c35 3 37 5 37 38 0 33 -2 35 -37 38 l-37 3 0
-41z"/>
<path d="M230 310 l0 -41 37 3 c35 3 37 5 37 38 0 33 -2 35 -37 38 l-37 3 0
-41z"/>
<path d="M2031 228 c-6 -17 -10 -32 -9 -33 7 -5 71 -25 73 -23 1 2 7 18 13 36
10 31 9 33 -14 42 -40 16 -51 12 -63 -22z"/>
<path d="M2184 191 c-4 -17 -6 -34 -6 -37 1 -8 345 -115 350 -109 2 1 5 18 8
37 l6 34 -164 48 c-89 27 -169 51 -176 53 -7 3 -14 -7 -18 -26z"/>
</g>
</svg>
