<?xml version="1.0" standalone="no"?>
<!DOCTYPE svg PUBLIC "-//W3C//DTD SVG 20010904//EN"
 "http://www.w3.org/TR/2001/REC-SVG-20010904/DTD/svg10.dtd">
<svg version="1.0" xmlns="http://www.w3.org/2000/svg"
 width="150.000000pt" height="150.000000pt" viewBox="0 0 256.000000 256.000000"
 preserveAspectRatio="xMidYMid meet">

<g transform="translate(0.000000,256.000000) scale(0.100000,-0.100000)"
fill="#000000" stroke="none">
<path d="M1660 2090 c-111 -30 -167 -70 -334 -236 -121 -121 -164 -157 -216
-182 -96 -47 -169 -57 -315 -43 -165 16 -299 14 -370 -4 -173 -45 -258 -122
-306 -277 -25 -78 -27 -247 -4 -343 46 -200 224 -389 446 -475 150 -58 238
-74 404 -74 133 0 156 2 207 22 83 33 168 100 240 189 97 120 159 183 200 204
21 11 84 29 141 40 132 26 194 44 289 84 171 72 311 196 375 332 34 71 38 87
41 178 7 178 -41 298 -168 425 -120 121 -239 169 -440 176 -94 3 -129 0 -190
-16z m312 -65 c198 -41 349 -180 403 -369 25 -87 18 -223 -16 -296 -87 -186
-307 -321 -623 -381 -165 -31 -199 -53 -341 -224 -111 -133 -140 -159 -225
-199 -64 -30 -68 -31 -210 -30 -123 1 -160 5 -245 27 -143 38 -266 101 -355
184 -137 127 -190 247 -190 430 0 232 68 331 265 389 52 15 81 16 225 8 257
-13 335 -10 409 15 101 35 166 83 316 234 146 148 198 185 296 211 70 19 206
19 291 1z"/>
<path d="M1561 1702 c-12 -23 4 -52 29 -52 11 0 27 -11 36 -26 42 -63 117 -68
174 -9 19 19 39 35 45 35 6 0 26 -16 45 -35 57 -59 132 -54 174 9 21 32 49 33
73 3 48 -61 123 -74 123 -22 0 17 -7 28 -23 34 -13 5 -39 25 -59 45 -54 54
-117 48 -168 -16 -12 -16 -26 -28 -32 -28 -6 0 -30 18 -54 40 -34 31 -52 40
-79 40 -27 0 -45 -9 -79 -40 -24 -22 -47 -40 -51 -40 -4 0 -25 18 -46 40 -43
45 -91 54 -108 22z"/>
<path d="M364 1235 c-8 -21 2 -44 23 -52 10 -3 34 -21 54 -40 21 -20 50 -36
71 -39 32 -6 41 -2 81 35 51 47 68 51 91 16 23 -36 72 -58 110 -51 18 4 47 22
66 41 19 19 39 35 45 35 6 0 26 -16 45 -35 39 -41 85 -54 107 -32 18 18 11 45
-14 54 -10 3 -37 24 -60 45 -59 53 -98 52 -157 -2 -24 -22 -48 -40 -54 -40 -6
0 -20 12 -32 28 -52 66 -113 70 -172 12 -23 -22 -43 -40 -46 -40 -3 0 -24 18
-48 40 -46 43 -99 55 -110 25z"/>
<path d="M517 1003 c-4 -3 -7 -16 -7 -29 0 -15 9 -25 29 -32 16 -6 34 -20 41
-31 16 -31 67 -54 104 -47 18 4 47 22 66 41 19 19 39 35 45 35 6 0 26 -16 45
-35 19 -19 48 -37 66 -41 38 -7 87 15 110 51 22 34 40 31 90 -15 47 -43 73
-49 98 -24 12 12 13 20 6 35 -6 10 -17 19 -24 19 -7 0 -31 18 -54 40 -59 58
-120 54 -172 -12 -12 -16 -26 -28 -32 -28 -6 0 -30 18 -54 40 -34 31 -52 40
-79 40 -27 0 -45 -9 -79 -40 -24 -22 -47 -40 -51 -40 -4 0 -25 18 -46 40 -37
38 -83 53 -102 33z"/>
</g>
</svg>
